<svg width="400" height="400" version="1.1" viewBox="0 0 106 106" xmlns="http://www.w3.org/2000/svg">
<g id="hat_partyhat" class="hat" display="none" stroke-linecap="round">
<path d="m51.5 18.8-31 70.7c8.57 8.49 48.6 11.2 61.4-0.0858z" fill="#45a5cd" stroke="#000" stroke-width="1.32"/>
<g fill="#f2d84d" stroke="#000" stroke-width="1.32">
<path d="m46.6 30-3.37 7.56c5.95 2.04 11.8 4.65 18.1 3.97l-3.89-8.8c-4.59 0.369-8.82-2.15-10.8-2.73z"/>
<path d="m39.8 45.6-3.29 7.6c11.5 6.67 22.3 8.04 32.8 6.88l-3.8-8.97c-8.06-0.719-15.3 0.516-25.7-5.51z"/>
<path d="m32.6 61.9c17.9 10.1 30.9 7.48 40.7 7.69l4.14 9.27c-11 1.25-30.2 3.15-48.1-9.35z"/>
<path d="m25.7 77.8c15.3 10.1 33 14.9 55.1 9.12l1.1 2.55c-4.62 4.04-12.4 6.14-20.5 6.99-7.32 0.779-14.8 0.517-19.9-0.0864-7.48-3.23-13.7-7.11-19.1-11.4z"/>
</g>
<path d="m46.1 25.5c-1.82-0.767 0.513-5.41 0.513-5.41s-4.73 0.681-5.07-1.06c-0.347-1.74 4.5-3.08 4.5-3.08s-3.43-3.48-2.23-4.89c1.2-1.42 5.56 1.48 5.56 1.48s0.554-4.23 2.17-4.29c1.62-0.0558 2.51 4.23 2.51 4.23s4.21-2.39 5.19-0.997c0.987 1.4-2.51 4.29-2.51 4.29s5 1.79 4.56 3.47c-0.439 1.69-4.68 0.664-4.68 0.664 0.116 0.0497 2.57 4.69 0.725 5.56-1.85 0.87-5.59-4.2-5.59-4.2 0 0-3.83 5-5.65 4.23z" fill="#800000" stroke="#000" stroke-width="1.32"/>
<circle class="hat_attachment_point invisible_element" cx="51" cy="95" r="2" display="inline" fill="#55f" stroke-linejoin="round" stroke-width=".794"/>
</g>
<g id="hat_chefshat" class="hat" display="none" stroke-linecap="round" stroke-linejoin="round">
<path d="m24.6 44.2 0.257 46.9c15.6 4.71 32.4 7.38 55.1 0.386l0.193-47-7.98-1.12 0.341 34.2-0.091 0.0149-0.37-34.4 2.64-5.98-3.34-4.88s-14.9 0.643-14.7 1.03c0.257 0.386 4.19 9.22 4.19 9.22l-0.0884 37.4-0.128 8e-3 0.0643-37.4-16.3 0.153 0.0643 37.1-0.0942-8e-5 -0.0987-37.1-9.58-9.33-3.54 0.707 1.92 9.13-0.0815 35.4-0.133-0.0166 0.0502-35.4z" fill="#fff" stroke="#000" stroke-width="1.32"/>
<circle class="hat_attachment_point invisible_element" cx="52" cy="94" r="2" display="inline" fill="#55f" stroke-width=".794"/>
<path d="m24.7 74.3c18.5 5.95 36.9 5.58 55.3 0.0454l-0.0155 4.49c-18.4 5.45-36.8 5.74-55.3-0.0342z" fill="#008000" stroke="#000" stroke-width="1.32"/>
<path d="m38.2 40.4c-27.6 22.5-37-29.4-5.32-21.4-1.22 1.63-2.58 2.89-3.5 5.37 13.5-23.2 39.8-13.9 45.1-1.58-0.591-1.51-1.41-2.89-2.6-4.05 34.2-6.38 22.3 42.9-4.84 21.6 2.27-1.38 4.43-2.84 5.75-4.52-10.2 9.54-27 13.1-40 0 1.54 1.58 2.87 3.1 5.36 4.58z" fill="#fff" stroke="#000" stroke-width="1.32"/>
</g>
<g id="hat_fisherhat" class="hat" display="none" stroke-linecap="round">
<g fill="#4c64a0" stroke="#000" stroke-width="1.32">
<path d="m6.13 70.9c0.136 0.724 14.3 11.2 46.1 11.1 31.9-0.111 47.4-10.4 47.5-11.1 0.109-1.41-1.63-2.48-2.7-3.13l-88.8 0.0176s-2.4 1.63-2.13 3.07z"/>
<g stroke-linejoin="round">
<g>
<path d="m72.3 31.4 5.93-3.3c3.79 2.08 4.53 18.9 6.78 28.4 0 0-7.18 3.69-7.1 3.55 0.0711-0.142-9.34-21.8-9.09-22 0.249-0.249 3.48-6.61 3.48-6.61z"/>
<path d="m20.5 56.1c1.56-12.9 4.06-27.1 6.89-28l45.1 3.13c2.89 8.94 3.67 17.8 5.61 27.1 0 0-23.5 5.4-23.8 5.33-0.355-0.0711-32.3-4.69-32.3-4.97 0-0.284-1.42-2.52-1.42-2.52z"/>
<path d="m20.5 56.1c-3.9 4.15-8.12 7.9-12.3 11.7 27.9 14.8 64.8 12.3 88.8-0.0737-4.09-3.97-7.77-7.57-11.9-11.9-19.9 5.49-40.9 8.58-64.6 0.265z"/>
</g>
<path d="m78.4 28.3c1.1e-4 2.42-10.9 4.2-25.2 4.2-14.3 0-26-1.88-26-4.3 4e-5 -2.42 11.7-4.45 26-4.45 14.3 0 25.2 2.13 25.2 4.55z"/>
</g>
</g>
<circle class="hat_attachment_point invisible_element" cx="53" cy="64" r="2" display="inline" fill="#55f" stroke-linejoin="round" stroke-width=".794"/>
</g>
<g id="hat_tophat" class="hat" display="none" stroke-linecap="round">
<g stroke="#000" stroke-width="1.32">
<path d="m27.4 77.4c0.601-6.79 1.32-17.4 1.05-26.9-0.374-13.2-2.46-25.3-2.15-26.3 0.85-1.47 10.3-3.79 27.3-3.79 17.1-5e-3 25.6 2.67 26 3.6 0.696 1.76-1.7 14.5-2.24 28.8-0.332 8.84 0.558 18.8 1.78 25.7-17.6 2.31-35.1 3.9-51.7-1.13z" fill="#656565"/>
<path d="m14.4 76 36.5 5.28 40.6-5.37c1.64 2.49-8.22 9.77-40.7 9.57-32.5-0.202-37.4-7.81-36.3-9.47z" fill="#333"/>
<path d="m20 74c0.554 0.135 6.66 1.99 8.06 2.62 16.1-0.798 34.1 3.82 50-0.174 2.31-0.58 7.97-2.98 10.7-2.68 2.69 0.295 2.98 2.09 2.7 2.07-6.46 5.25-52.5 12.4-76.9 0.167 0.126-1.28 1.83-2.7 5.4-2z" fill="#656565"/>
</g>
<circle class="hat_attachment_point invisible_element" cx="53" cy="83" r="2" display="inline" fill="#55f" stroke-linejoin="round" stroke-width=".794"/>
<path d="m28 64.2c-0.15 4.12-0.423 8.22-0.825 12.3 16.2 4.74 33.4 5.08 51.8 0.0208-0.714-4.09-0.986-8.24-1.27-12.4-19.8 2.76-35.4 1.95-49.7 0.0944z" fill="#333" stroke="#000" stroke-width="1.32"/>
</g>
<g id="hat_baret" class="hat" display="none" stroke-linecap="round">
<g fill="#800000" stroke="#000" stroke-width="1.32">
<path d="m16.7 69c-0.388 2.08 0.0967 4.04 2.21 5.35 22.2 0.894 44.1 0.764 66.2 0.695 0.833-0.833 0.94-3.97 0.327-3.68-0.104 0.049-16.6-4.15-33.6-4.75-17.3-0.611-35.2 2.38-35.2 2.38z"/>
<path d="m54.1 36.6c-1-5.2 0.575-6.92 2.23-8.38 0.957-0.811 4.26-2.32 5.95 1.18-3.52 2.23-4.31 5.98-5.29 9.62z"/>
<path d="m16.6 69.4c23.2-0.802 45.9 0.778 68.9 2.59 0.344-0.6 0.589-1.21 0.715-1.84-5.58-1.68-10.1-4.75-14.6-7.81-18.3 3.5-27.4 1.81-29.3 1.55 15.8 1.29 30.1-1.63 33.5-3.33-1.08 0.518-2.22 1.16-3.92 1.68 4.5 2.93 8.85 6.02 14.4 7.74 42.7-7.46-17.3-36.1-50.7-36.2-9.92 0.0714-29.4 2.31-31.1 17.8-0.546 5.56 6.88 13.2 12 17.8z"/>
</g>
<circle class="hat_attachment_point invisible_element" cx="51" cy="72" r="2" display="inline" fill="#55f" stroke-linejoin="round" stroke-width=".794"/>
</g>
<g id="hat_fedora" class="hat" display="none" stroke-linecap="round">
<g fill="#a08268" stroke="#000" stroke-width="1.32">
<path d="m24.4 57.7c3.1-8.13 7.22-21.6 9.31-24.4 2.09-2.74 3.76-3.98 7.27-4.39 3.51-0.409 11.8 3.57 11.8 3.57-3.57 1.45-10.7 1.41-11.4 0.164-0.231-0.412-0.134-0.798 0.0328-1.18-0.274 0.411-0.415 0.838-0.197 1.31 0.199 1.31 7.8 1.56 11.8-0.197 0 0 15.5-5.2 20.3-2.95 4.21 1.96 5.22 8.55 7 15.6 1.67 6.58 3.37 13.2 4.65 15.8 0.408 0.813 0.34 1.39 0.34 1.39l-51.2 6.65z"/>
<path d="m39.4 76.3c6.97 0.0896 18.6-2.9 31.1-5 13.1-2.23 22.5-3.56 26.2-5.12 3.69-1.56 12-11.9-12.3-5.32l-43.4 4.43z"/>
<path d="m26.7 56.9-1.23-0.129c-16.3-3.04-23.4 4.67-19.7 11 3.6 6.14 17.6 10.9 34.1 8.64 16.9-2.96 30.6-9.74 45.1-15.7z"/>
<path d="m58.3 37.2c-0.132 4.46 3.88 9.61 9.41 10.3-6.62-1.69-8.74-6.51-9.41-10.3z"/>
</g>
<path d="m26 52.9c-0.599 2.1-1.19 5.08-3.06 8.48 17.9 8.22 39.8 3.81 56.1 1.76 1.96-0.908 3.94-1.72 5.89-2.46-0.826-2.36-1.54-5.02-2.28-7.55-8.69 2.6-33.2 6.78-56.7-0.232z" fill="#4d3d2f" stroke="#000" stroke-width="1.32"/>
<circle class="hat_attachment_point invisible_element" cx="54" cy="61" r="2" display="inline" fill="#55f" stroke-linejoin="round" stroke-width=".794"/>
</g>
<g id="hat_baseballcap" class="hat" stroke-linecap="round">
<g stroke="#000" stroke-width="1.32">
<path d="m59.2 30.4 8 0.244s-0.0245-3.13-3.71-3.25c-3.69-0.121-4.29 3.01-4.29 3.01z" fill="#efd948"/>
<path d="m66.9 30.1c28.5 4.51 26.3 28.5 25.2 37.4-6.04 1.78-11.7 0.374-13.8-0.244l-12.8-33.3z" fill="#008000"/>
<path d="m67.3 30c19 7.75 10 33.9 11.2 37.4l-45.9-6.16c1.27-8.33 0.864-18 6.85-23.7 5.42-5.41 12.3-7.03 19.4-7.7z" fill="#008000"/>
<path d="m31.1 67.9c-6.56 4.33-14.6 8.7-17.4 6.11 1.08-3.02 4.97-5.45 6.62-6.13 1.65-0.678 12.5-1.77 10.8 0.0208z" fill="#9e923f"/>
<path d="m13.7 74c1.85-3.62 5.79-5.57 7.77-6.1 2.48-0.655 5.79-0.361 10.4 0.203 3.85 0.471 7.73 1.88 10.4 3.05 2.92 1.27 11.1 7.45 18.1 7.31 2.8-0.056 7.6-1.49 11.1-3.46 5.21-2.93 9.07-7.14 9.07-7.14-5.1-2.03-21-4.21-28.3-5.29-6.66-0.986-14.5-3.75-19.4-1.7l-11 5c-1.7 0.19-10.8 5.07-8.14 8.13z" fill="#c8b640"/>
<path d="m21.8 65.8c4.96-2.21 9.95-4.69 14.8-6.14 0 0 8.32-1.55 15.5-0.608 7.13 0.938 26.5 8.21 26.5 8.21-0.818 1.7-11.3 8.87-18.1 8.76-6.74-0.115-15.2-6.51-19.6-7.97-4.41-1.46-8.46-2.16-11.6-2.4-3.16-0.24-7.42 0.152-7.42 0.152z" fill="#efd948"/>
</g>
<path transform="matrix(1.35 .136 -.136 1.35 23.5 483)" d="m-10.9-318h2.73v-4.86h4.34v-2.22h-4.34v-2.76h4.64v-2.24h-7.37z" fill="#fff" stroke="#000" stroke-width=".978" aria-label="F"/>
<circle class="hat_attachment_point invisible_element" cx="66.1" cy="61.5" r="2" fill="#55f" stroke-linejoin="round" stroke-width=".794"/>
</g>
<g id="hat_beanie" class="hat" stroke-linecap="round">
<path d="m23.8 67.7 58.3 0.184c1.53-2.02-1.49-32.3-28.7-32.4-27.2-0.159-31.1 29.3-29.6 32.2z" fill="#394c87" stroke="#000" stroke-width="1.32"/>
<path d="m21.2 67.6c-0.519 0.704-1.73 3.26-1.76 7.82-0.028 4.78 1.61 8.22 2.55 7.61 1.56-1 59.9 0.021 62.1 0.0833 1.13 0.035 2.25-4.15 2.3-7.32 0.056-3.57-1.06-7.31-1.88-8.19-1.84-1.96-62-1.72-63.3 0z" fill="#b5363b" stroke="#000" stroke-width="1.32"/>
<g fill="#fff" stroke="#000" stroke-width="1.32">
<path d="m23.5 67.1c-2.29 5.31-2.31 10.5-0.109 15.7 0.814-0.063 1.62-0.104 2.42-0.115-2.39-5.39-1.74-10.6-0.049-15.8z"/>
<path d="m30.5 66.6c-2.16 4.51-1.97 10.4 0.146 16 0.843-0.014 1.76-7e-3 2.56-0.021-2.02-6.14-2.31-11.5-0.325-16.1z"/>
<path d="m38.6 66.4c-1.58 4.51-1.36 10.6 0.188 16.2 0.843-0.014 1.92 0.014 2.72 0.0053-1.28-5.28-1.58-11.1-0.269-16.3z"/>
<path d="m47.2 66.2c-0.978 4.03-0.829 10.1-0.151 16.4 0.843-0.014 2.14 0.021 2.94 0.014-0.696-5.39-0.52-11.4 0.121-16.4z"/>
<path d="m82.4 67.1c2.29 5.31 2.15 10.8-0.056 16-0.814-0.063-1.71-0.042-2.51-0.049 2.39-5.39 2.03-10.9 0.343-16.2z"/>
<path d="m75.3 66.6c2.16 4.51 1.93 10.8-0.188 16.4-0.844-0.014-1.73-0.021-2.54-0.028 2.02-6.14 2.31-11.9 0.325-16.4z"/>
<path d="m67.2 66.4c1.58 4.51 1.31 10.9-0.239 16.5-0.843-0.014-1.94-0.014-2.74-0.028 1.28-5.28 1.65-11.4 0.342-16.5z"/>
<path d="m58.5 66.2c0.978 4.03 0.829 10.2 0.151 16.5-0.843-0.014-2.12-0.063-2.92-0.0707 0.696-5.39 0.531-11.4-0.111-16.5z"/>
</g>
<path d="m47.6 24.6c0.573-0.311 1.1 1.2 1.71 0.957 0.741-0.304-0.103-2.08 0.666-2.31 0.749-0.221 1 1.68 1.77 1.54 0.768-0.146 0.3-2.05 1.08-2.08 0.716-0.028 0.423 1.68 1.12 1.83 0.707 0.15 1.11-1.47 1.79-1.23 0.653 0.233-0.028 1.67 0.582 2 0.645 0.348 1.52-1.09 2.1-0.645 0.472 0.366-0.512 1.37-0.0833 1.79 0.449 0.436 1.44-0.603 1.87-0.146 0.498 0.532-0.716 1.56-0.312 2.16 0.369 0.554 1.71-0.127 1.93 0.499 0.206 0.57-1.11 0.873-1.06 1.48 0.063 0.787 1.77 0.903 1.66 1.68-0.0833 0.619-1.51 0.322-1.62 0.936-0.128 0.708 1.63 0.993 1.37 1.66-0.233 0.609-1.62-0.279-1.93 0.291-0.344 0.622 1.22 1.34 0.853 1.96-0.339 0.568-1.49-0.283-1.98 0.167-0.643 0.597 0.369 2.21-0.416 2.6-0.652 0.326-1.28-1.33-1.93-1.02-0.682 0.326 0.26 1.93-0.437 2.23-0.563 0.239-0.928-1.02-1.54-0.998-0.884 0.0349-1.22 1.67-2.1 1.62-0.779-0.0419-0.905-1.6-1.68-1.62-0.682-0.014-0.883 1.54-1.54 1.35-0.717-0.205 0.021-1.81-0.645-2.14-0.612-0.302-1.33 1.09-1.91 0.728-0.725-0.445 0.286-1.89-0.27-2.54-0.421-0.487-1.55 0.0804-1.87-0.479-0.287-0.501 0.729-1.14 0.479-1.66-0.244-0.507-1.42-0.101-1.56-0.645-0.149-0.559 1.13-0.798 1.06-1.37-0.0777-0.675-1.62-0.611-1.58-1.29 0.042-0.726 1.59-0.499 1.83-1.19 0.236-0.677-1.08-1.44-0.687-2.04 0.329-0.5 1.42 0.325 1.79-0.146 0.455-0.581-0.861-1.65-0.353-2.18 0.398-0.42 1.28 0.56 1.73 0.188 0.495-0.416-0.443-1.63 0.125-1.93z" fill="#b33a3f" stroke="#000" stroke-width="1.32"/>
<circle class="hat_attachment_point invisible_element" cx="53" cy="73.2" r="2" fill="#55f" stroke-linejoin="round" stroke-width=".794"/>
</g>
</svg>
