<svg width="210mm" height="297mm" version="1.1" viewBox="0 0 210 297" xmlns="http://www.w3.org/2000/svg">
<g id="icon_player_male_back" class="icon_player_male" stroke="#000">
<g stroke-width=".263">
<path class="outline" d="m-0.572-14.8c-0.0468 0.18-0.129 0.341 0 0.584-0.457-0.138-0.871-0.359-1.41-0.338-0.039 0.189-0.0472 0.379 0.046 0.568-0.353-0.115-0.675-0.0858-0.998-0.0615 0.0464 0.216 0.104 0.424 0.211 0.599-0.597 0.403-0.764 0.953-0.779 1.99-0.0048 0.34 0.0127 0.714 0.0543 1.1-0.112-6.3e-4 -0.632 0.0278-0.623 0.605 0.0117 0.802 0.335 0.987 0.981 1.21 0.0662 0.223 0.141 0.443 0.224 0.657 0 0 0.0367 0.0471 0.111 0.122 0.268 0.575 0.443 1.16 1.46 1.62l0.0207 0.225h-0.227l-0.341 0.653-0.129 0.00103s-1.38 0.479-1.79 1.02c-1.47 1.96-1.9 6.67-2 8.03-8.76e-4 0.0126 0.00321 0.0248 0.0114 0.0367l-0.0295 0.487c0.00278 0.0853 0.0914 0.151 0.227 0.201-0.023 0.406-0.0354 0.813-0.00207 1.22 0.252 0.621 0.822 1.49 1.15 1.17 0.274-0.271 0.132-0.731 0.0884-1.04 0 0-0.433 0.00247-0.532-0.111-0.145-0.166-0.172-0.618-0.172-0.618s0.0421 0.506 0.211 0.636c0.114 0.0878 0.493 0.0723 0.493 0.0723-0.0394-0.382-0.0189-0.861 0.0253-1.26 0.0546-0.0114 0.102-0.0252 0.137-0.0413h5.17e-4v-5.17e-4l5.16e-4 -5.17e-4 5.17e-4 -5.17e-4c0.0132-0.0175 0.0356-0.163 0.0537-0.297l0.0791 0.00827c-0.0484 0.435-0.0995 0.87-0.153 1.3 0.334 0.0923 0.665 0.172 0.995 0.239l-0.464 0.0109c0.49 2.73 0.838 5.42 1.1 8.07-0.295 0.305-0.864 1.02-0.717 1.02l2.65-0.0078-0.0191-0.979c-2.64e-4 -2.5e-5 -0.0202-0.0018-0.0553-0.0052-0.0021-2.27 0.374-4.63 0.568-6.9-0.275 0.0022-0.571 0.232-0.837 0.317 0.778-0.753 1.54-0.442 1.93-0.0801-0.243-0.0616-0.692-0.244-0.916-0.233 0.186 2.27 0.729 4.59 0.715 6.86l-0.0522 0.0067v1.03h2.56c-0.0122-0.364-0.333-0.689-0.62-1.02 0.262-2.75 0.558-5.5 0.981-8.25l-0.196 0.00465c0.254-0.0581 0.508-0.122 0.761-0.19-0.0375-0.345-0.0535-0.694-0.0915-1.04 0.0054 0.0263 0.0108 0.0485 0.015 0.0548l0.00103 0.00103h5.16e-4c0.0552 0.0248 0.136 0.0443 0.232 0.0579 0.032 0.363 0.0428 0.765 0.00879 1.09 0 0 0.378 0.0156 0.492-0.0723 0.169-0.13 0.211-0.636 0.211-0.636s-0.0268 0.452-0.172 0.618c-0.0995 0.114-0.532 0.112-0.532 0.112-0.0439 0.307-0.186 0.767 0.0878 1.04 0.324 0.32 0.894-0.551 1.15-1.17 0.0302-0.367 0.0231-0.734 0.00465-1.1 0.0872-0.0442 0.141-0.0992 0.143-0.165l-0.0326-0.526c-0.0177 0.00445-0.035 0.0087-0.0527 0.0129 0.0636-0.0451 0.0993-0.0945 0.0961-0.147-0.0961-1.56-0.495-6.06-1.97-7.93-0.403-0.509-1.53-0.853-1.77-0.921l-0.441-0.642h-0.151l-0.0238-0.225c0.746-0.4 1.17-0.978 1.44-1.65 0.0367-0.0375 0.0553-0.0594 0.0553-0.0594 0.0658-0.169 0.131-0.34 0.195-0.516 0.266-0.115 1.1-0.542 1.09-1.35-0.0127-0.68-0.486-0.664-0.576-0.655 0.0445-0.359 0.0632-0.736 0.0465-1.13-0.0383-0.765-0.247-1.34-0.626-1.9-0.174-0.123-0.356-0.236-0.522-0.238-0.356-0.35-0.579-0.709-1.2-0.929-0.161 0.159-0.129 0.294-0.123 0.445-0.568-0.336-1.16-0.47-1.75-0.676z" fill="#f7ddbd"/>
<path class="skin" d="m-3.24-10.4-0.185 0.0566s-0.653-0.0426-0.644 0.604c0.0126 0.867 0.389 1.01 1.14 1.26l0.123 0.622c0.3 0.607 0.432 1.24 1.51 1.73l0.0307 0.33 2.71 0.0306-0.0384-0.361c0.776-0.417 1.21-1.03 1.47-1.73l0.138-0.461s1.19-0.422 1.17-1.38c-0.0141-0.752-0.591-0.653-0.591-0.653l-0.438-0.0352z" fill="#f7ddbd"/>
<path class="shirt" d="m2.05-5.25-0.478-0.695h-3.08l-0.369 0.707c1.29 0.17 2.6 0.0616 3.93-0.0118z" fill="#eeda22"/>
<path class="skin" d="m5.58 3.84c0.0351 0.544 0.0721 1.09 0.0274 1.63-0.252 0.621-0.822 1.49-1.15 1.17-0.274-0.271-0.132-0.731-0.0881-1.04 0 0 0.433 0.0022 0.532-0.111 0.145-0.166 0.172-0.618 0.172-0.618s-0.042 0.506-0.211 0.636c-0.114 0.0879-0.493 0.0723-0.493 0.0723 0.0532-0.516-0.0032-1.21-0.079-1.65z" fill="#f7ddbd"/>
<path class="skin" d="m-5.53 4.07c-0.0351 0.544-0.0721 1.09-0.0274 1.63 0.252 0.621 0.822 1.49 1.15 1.17 0.274-0.271 0.132-0.731 0.0881-1.04 0 0-0.433 0.0022-0.532-0.111-0.145-0.166-0.172-0.618-0.172-0.618s0.042 0.506 0.211 0.636c0.114 0.0878 0.493 0.0723 0.493 0.0723-0.0532-0.516 0.0032-1.21 0.079-1.65z" fill="#f7ddbd"/>
</g>
<path class="shoes" d="m-0.63 13.9 0.0192 0.979-2.65 0.0077c-0.186 0 0.774-1.14 0.875-1.15 0.0168-0.0022 1.75 0.165 1.75 0.165z" fill="#784421" stroke-width=".263"/>
<path class="shoes" d="m0.722 13.8v1.03h2.56c-0.0152-0.45-0.503-0.842-0.814-1.26z" fill="#784421" stroke-width=".263"/>
<g>
<path class="pants" d="m-3.65 5.77c0.492 2.74 0.841 5.44 1.11 8.1 0.553-0.126 1.18-0.104 1.85 0.0154-0.0046-2.28 0.373-4.64 0.568-6.92-0.275 0.0022-0.571 0.232-0.837 0.317 0.778-0.753 1.54-0.442 1.93-0.0804-0.243-0.0616-0.692-0.244-0.916-0.233 0.189 2.3 0.743 4.65 0.714 6.95 0.647-0.148 1.27-0.138 1.88 0 0.264-2.77 0.562-5.55 0.988-8.32z" fill="#ac9d93" stroke-width=".263"/>
<path class="shirt" d="m5.75 4.21c-0.0107 0.327-1.28 0.378-1.62 0.227-0.0239-0.0107-0.0843-0.527-0.0843-0.527 0.662-0.0657 1.17-0.0977 1.67-0.225z" fill="#eeda22" stroke-linecap="round" stroke-linejoin="round" stroke-miterlimit="0" stroke-width=".2"/>
<path class="shirt" d="m-5.78 4.28c0.0107 0.327 1.28 0.378 1.62 0.227 0.0239-0.0107 0.0843-0.527 0.0843-0.527-0.662-0.0657-1.17-0.0977-1.67-0.225z" fill="#eeda22" stroke-linecap="round" stroke-linejoin="round" stroke-miterlimit="0" stroke-width=".2"/>
<path class="jacket" d="m5.76 3.55c-0.0959-1.56-0.495-6.06-1.97-7.93-0.452-0.571-1.82-0.934-1.82-0.934l-3.95 0.0245s-1.38 0.479-1.79 1.02c-1.47 1.96-1.9 6.67-2 8.03-0.0167 0.239 1.69 0.355 1.71 0.193 0.278-2.2 0.435-4.44 0.632-6.66-0.197 2.74-0.419 5.49-0.76 8.23 2.92 0.808 5.69 0.614 8.38-0.109-0.293-2.7-0.618-5.4-0.717-8.12 0.104 2.24 0.278 4.44 0.592 6.6 0.0294 0.202 1.7-0.0076 1.68-0.351z" fill="#8a508d" stroke-width=".263"/>
<path class="hair" d="m3.03-13.4c-0.174-0.123-0.356-0.236-0.522-0.238-0.356-0.35-0.579-0.709-1.2-0.929-0.161 0.159-0.129 0.294-0.123 0.445-0.568-0.336-1.16-0.47-1.75-0.676-0.0468 0.18-0.129 0.341 0 0.584-0.457-0.138-0.871-0.358-1.41-0.338-0.039 0.189-0.0471 0.379 0.0461 0.568-0.353-0.115-0.675-0.0858-0.998-0.0615 0.0464 0.216 0.104 0.424 0.211 0.599-0.597 0.403-0.764 0.953-0.779 1.99-0.0146 1.04 0.176 2.39 0.637 3.57 0 0 0.889 1.15 2.85 1.17 1.96 0.0156 2.92-1.12 2.92-1.12 0.409-1.05 0.813-2.21 0.753-3.66-0.0383-0.765-0.247-1.34-0.626-1.9z" fill="#926b44" stroke-width=".263"/>
</g>
</g>
<g id="icon_player_male_front" class="icon_player_male" stroke="#000">
<g>
<g stroke-width=".25">
<path class="outline" d="m-0.591-14.8v0.0015c-0.0446 0.172-0.123 0.324 0 0.554-0.436-0.131-0.831-0.341-1.35-0.321-0.037 0.18-0.0441 0.36 0.045 0.541-0.336-0.109-0.643-0.0806-0.95-0.0574 0.0442 0.205 0.0985 0.403 0.201 0.57-0.568 0.383-0.728 0.909-0.742 1.9-0.123 0.573-0.0749 1.07 0.0398 1.56-0.0674 0.0264-0.155 0.0274-0.262-0.0367 0 0-0.473-0.0384-0.464 0.639 0.0112 0.908 0.176 0.95 0.968 1.21l0.129 0.652c0.314 0.636 0.452 1.3 1.58 1.81 0.0572 0.0344 0.115 0.0671 0.173 0.0977l-0.0258 0.473-0.105-0.356c-0.081 0.122-0.178 0.229-0.28 0.333l-0.00724-0.0202s-1.56 0.468-1.95 0.981c-1.36 1.8-1.78 6.59-1.89 8.04-8.89e-4 0.0119 8.63e-4 0.0237 0.00465 0.0351l-0.0289 0.479c0.00255 0.0782 0.0772 0.14 0.194 0.188-0.0283 0.45-0.0503 0.901-0.0134 1.35 0.24 0.591 0.783 1.42 1.09 1.12 0.261-0.258 0.126-0.696 0.0842-0.989 0 0-0.412 0.00219-0.507-0.106-0.138-0.158-0.164-0.589-0.164-0.589s0.0404 0.482 0.202 0.606c0.109 0.0837 0.469 0.0692 0.469 0.0692-0.0429-0.416-0.012-0.952 0.0429-1.36 0.092-0.0135 0.17-0.0323 0.223-0.0563l5.17e-4 -5.17e-4c-0.0405 0.359-0.0547 0.717-0.0992 1.08 0.152 0.0529 0.304 0.104 0.454 0.152 0.468 2.61 0.692 5.33 0.946 7.86 0.0227-0.0052 0.0457-0.01 0.0692-0.0145l-0.00155 0.0026c-0.341 0.382-0.766 0.758-0.757 1.16 0.0281 0.31 2.01 0.114 2.55-0.244 0.0327-0.28 0.0602-0.56 0.0217-0.841 0.0164 0.0029 0.0329 0.0054 0.0491 0.0083-0.0045-2.17 0.526-6.58 0.688-6.58 0.162 0.0045 0.728 4.42 0.7 6.61 0.0092-0.0021 0.0181-0.0041 0.0274-0.0062-0.0312 0.268-0.0044 0.535 0.0269 0.803 0.535 0.358 2.52 0.554 2.55 0.244 0.0092-0.405-0.416-0.781-0.757-1.16l-0.0367-0.0724c0.245-2.56 0.523-5.12 0.916-7.68 0.219-0.0743 0.416-0.159 0.577-0.253-0.0019 0.123-0.0077 0.242-0.0191 0.352 0 0 0.36 0.0145 0.469-0.0692 0.161-0.124 0.201-0.606 0.201-0.606s-0.0261 0.43-0.164 0.589c-0.0948 0.108-0.507 0.106-0.507 0.106-0.0417 0.293-0.177 0.731 0.0842 0.989 0.308 0.305 0.851-0.524 1.09-1.12 0.0359-0.437 0.0167-0.873-0.0103-1.31 0.163-0.0502 0.274-0.123 0.277-0.218l-0.0274-0.446c0.0382-0.0321 0.059-0.0662 0.0568-0.102-0.087-1.45-0.461-6.32-1.88-8.12-0.43-0.544-1.92-0.877-1.92-0.877l-0.00569 0.015c-0.101-0.107-0.199-0.217-0.284-0.346l-0.093 0.303-0.0243-0.409c0.0534-0.028 0.107-0.0582 0.161-0.0899 0.813-0.436 1.27-1.07 1.54-1.81l0.145-0.483s1.01-0.34 0.992-1.35c-0.0134-0.788-0.527-0.647-0.527-0.647l-0.15-0.0816v-5.17e-4c0.0984-0.405 0.128-0.875-0.00878-1.5-0.0366-0.728-0.234-1.28-0.595-1.81h-0.00103c-0.166-0.117-0.339-0.225-0.497-0.226-0.339-0.333-0.551-0.675-1.14-0.885-0.153 0.151-0.123 0.28-0.116 0.424-0.541-0.32-1.11-0.447-1.67-0.643z" fill="#f7ddbd"/>
<path class="skin" d="m-1.21-5.96-0.111 2.02 2.69-0.249-0.111-1.87z" fill="#f7ddbd"/>
<path class="shirt" d="m-1.4-5.05c0.914 0.328 1.85 0.499 2.86 0l0.0585 6.22-3.03-0.392z" fill="#eeda22"/>
</g>
<path class="skin" d="m-3.21-11.4c-0.127 0.13 0.0377 1.19 0.0377 1.19s-0.145 0.294-0.432 0.123c0 0-0.473-0.0384-0.463 0.639 0.0112 0.908 0.176 0.95 0.968 1.21l0.129 0.652c0.314 0.636 0.453 1.3 1.58 1.81 0.864 0.519 1.79 0.61 2.83-4.4e-5 0.813-0.436 1.27-1.07 1.54-1.81l0.145-0.483s1.01-0.34 0.992-1.35c-0.0134-0.788-0.527-0.647-0.527-0.647l-0.32-0.175-0.549-2.66-5.21 0.0484z" fill="#f7ddbd" stroke-width=".223"/>
</g>
<path d="m-0.315-8.19c0.0958 0.175 0.582 0.224 0.68 0.0089" fill="none" stroke-linecap="round" stroke-width=".223"/>
<g>
<path class="skin" d="m5.16 4.23c0.0335 0.518 0.0688 1.04 0.0261 1.55-0.24 0.591-0.783 1.42-1.09 1.12-0.261-0.258-0.126-0.696-0.0839-0.988 0 0 0.412 0.0021 0.507-0.106 0.138-0.158 0.164-0.588 0.164-0.588s-0.04 0.482-0.201 0.606c-0.109 0.0837-0.469 0.069-0.469 0.069 0.0507-0.492-0.0022-1.15-0.0752-1.57z" fill="#f7ddbd" stroke-width=".25"/>
<path class="skin" d="m-5.3 4.24c-0.0335 0.518-0.0685 1.04-0.0261 1.55 0.24 0.591 0.783 1.42 1.09 1.12 0.261-0.258 0.126-0.696 0.0839-0.988 0 0-0.412 0.0021-0.507-0.106-0.138-0.158-0.164-0.588-0.164-0.588s0.04 0.482 0.201 0.606c0.109 0.0837 0.469 0.069 0.469 0.069-0.0507-0.492 0.0022-1.15 0.0752-1.57z" fill="#f7ddbd" stroke-width=".25"/>
<path class="shoes" d="m2.58 13.5c0.341 0.382 0.766 0.758 0.757 1.16-0.0281 0.31-2.01 0.114-2.55-0.245-0.0431-0.369-0.0772-0.738 0.0366-1.11l1.52-0.263z" fill="#784421" stroke-width=".25"/>
<path class="shoes" d="m-2.52 13.6c-0.341 0.382-0.766 0.758-0.757 1.16 0.0281 0.31 2.01 0.114 2.55-0.245 0.0431-0.369 0.0772-0.738-0.0366-1.11l-1.52-0.263z" fill="#784421" stroke-width=".25"/>
<path class="pants" d="m-3.53 5.7c0.468 2.61 0.693 5.33 0.947 7.87 0.526-0.12 1.29-0.0406 1.93 0.0743-0.0045-2.17 0.526-6.58 0.688-6.58 0.162 0.0045 0.728 4.42 0.7 6.61 0.617-0.141 1.21-0.131 1.79 0 0.251-2.64 0.535-5.28 0.941-7.92-2.34-1.32-4.71-1.65-6.99-0.0478z" fill="#ac9d93" stroke-width=".25"/>
<g stroke-linejoin="round">
<path class="shirt" d="m-5.51 4.25c0.0107 0.327 1.28 0.378 1.62 0.227 0.0239-0.0107 0.0843-0.527 0.0843-0.527-0.662-0.0657-1.17-0.0977-1.67-0.225z" fill="#eeda22" stroke-linecap="round" stroke-miterlimit="0" stroke-width=".2"/>
<path class="shirt" d="m5.45 4.26c-0.0107 0.327-1.28 0.378-1.62 0.227-0.0239-0.0107-0.0843-0.527-0.0843-0.527 0.662-0.0657 1.17-0.0977 1.67-0.225z" fill="#eeda22" stroke-linecap="round" stroke-miterlimit="0" stroke-width=".2"/>
<path class="jacket" d="m5.48 3.71c-0.087-1.45-0.461-6.32-1.88-8.12-0.43-0.544-1.92-0.878-1.92-0.878l-1.65 4.51-1.67-4.51s-1.56 0.468-1.95 0.981c-1.36 1.8-1.78 6.59-1.89 8.04-0.0232 0.311 1.61 0.442 1.63 0.272 0.261-2.08 0.41-4.19 0.596-6.29-0.188 2.61-0.399 5.23-0.724 7.84 1.08 0.375 2.11 0.647 3.28 0.495 0.301-0.0679 0.751-0.973 0.692-1.08l0.0342-5.78 9e-5 5.76c-0.0134 0.0112 0.525 1.03 0.811 1.15 0.579 0.161 2.4-0.0844 3.21-0.569-0.279-2.57-0.637-5.22-0.731-7.82 0.0984 2.13 0.264 4.22 0.563 6.28 0.0284 0.196 1.62 0.0182 1.61-0.285z" fill="#8a508d" stroke-width=".25"/>
</g>
<path class="hair" d="m-0.592-14.8c-0.0446 0.172-0.123 0.324 0 0.555-0.436-0.131-0.831-0.341-1.35-0.322-0.037 0.18-0.044 0.361 0.0451 0.541-0.336-0.109-0.643-0.0808-0.95-0.0576 0.0442 0.205 0.0987 0.403 0.201 0.57-0.568 0.383-0.728 0.909-0.742 1.9-0.22 1.03 0.107 1.8 0.386 2.75l0.098-0.0156c0.0067-1.33-0.0616-2.73 0.729-3.29 1.4 0.62 2.85 0.642 4.35-0.0179 0.988 0.749 0.632 2.14 0.72 3.31l0.0761 0.0045c0.282-0.818 0.751-1.43 0.458-2.78-0.0366-0.728-0.234-1.28-0.595-1.81h-0.0012c-0.166-0.117-0.339-0.224-0.497-0.226-0.339-0.333-0.551-0.675-1.14-0.885-0.153 0.151-0.123 0.279-0.117 0.423-0.541-0.32-1.11-0.446-1.67-0.642z" fill="#926b44" stroke-width=".25"/>
</g>
<path class="lapel" d="m1.39-5.61-1.44 4.69c0.657-0.831 1.31-1.58 1.97-2.49-0.0828-0.126-0.2-0.252-0.352-0.378 0.244-0.19 0.581-0.353 0.718-0.574-0.165-0.576-0.605-0.803-0.894-1.24z" fill="#d40000" stroke-width=".25"/>
<path class="lapel" d="m-1.36-5.6 1.39 4.7c-0.657-0.831-1.31-1.58-1.97-2.49 0.0828-0.126 0.2-0.252 0.352-0.378-0.244-0.19-0.581-0.353-0.718-0.574 0.165-0.576 0.657-0.816 0.946-1.25z" fill="#d40000" stroke-width=".25"/>
<ellipse cx="-1.38" cy="-9.17" rx=".293" ry=".418" stroke-width=".247"/>
<ellipse cx="1.44" cy="-9.15" rx=".293" ry=".418" stroke-width=".247"/>
<g fill="none" stroke-linecap="round" stroke-width=".223">
<path d="m-2.02-10.1c0.524-0.318 0.89-0.174 1.1 2.2e-5"/>
<path d="m0.966-10.1c0.524-0.318 0.89-0.174 1.1 2.3e-5"/>
<path d="m-0.818-7.04c0.257 0.34 1.42 0.353 1.66-0.0089"/>
</g>
</g>
<g id="icon_player_female_left" class="icon_player_female" stroke="#000" stroke-width=".2">
<path class="outline" d="m-0.493-14.9c-2.67 0.116-4.64 2.67-3.18 4.27 0.0233 0.371 0.0576 0.75 0.134 1.15 0 0-0.607 0.795-0.485 1.18 0.0654 0.205 0.553 0.253 0.553 0.253l0.143 0.798 0.0641 0.253c2.23e-4 0.00102 2.92e-4 0.00208 5.17e-4 0.0031l0.0227 0.0894c0.358 1.25 2.17 1.27 2.92 0.926l-0.218 0.138v0.716l-0.189 0.0847-0.42 0.84-0.0455 0.0186c-0.574 1.33-2.27 2.31-0.815 3.75-0.208 2.27-0.212 3.78-0.276 5.51 0.22 0.032 0.446 0.0486 0.672 0.0527 0.181 2.98 0.827 5.75 1.35 8.44-0.581 0.206-1.06 0.477-1.57 0.827-0.107 0.0974-0.233 0.235-0.0822 0.437l3.5-0.0362c0.133-0.289 0.0971-0.595 0.0517-0.911l0.0501 0.0057c0.0916-2.09 0.277-4.42 0.524-6.9 0.639-0.657 1.03-1.72 1.12-2.28 0.152-0.0547 0.298-0.116 0.44-0.183-0.309-1.09-0.688-2.81-0.728-3.46-0.0399-0.655-0.0932-3.7-0.116-4.12 9e-3 -0.519-0.0718-0.877-0.174-1.2 0.187-0.118 0.355-0.286 0.502-0.51 0.12 0.146-0.0279 0.37-0.0822 0.566 0.499-0.199 0.964-0.587 0.998-1.47-0.152-0.804-0.362-1.51-0.36-2.57 0.18-4.63-0.912-5.73-2.38-6.34-0.656-0.274-1.31-0.377-1.92-0.35z" fill="#784421"/>
<path class="shoes" d="m-0.014 13.5c-0.699 0.214-1.24 0.511-1.82 0.91-0.107 0.0974-0.233 0.235-0.0822 0.437l3.5-0.0362c0.192-0.416 0.0327-0.867-3.7e-5 -1.33z" fill="#784421"/>
<path class="pants" d="m-1.62 5.13c0.18 3.03 0.844 5.85 1.37 8.58l1.93 0.218c0.0916-2.09 0.277-4.42 0.524-6.9 0.89-0.916 1.3-2.62 1.08-2.63-0.06-0.0025-4.73 0.262-4.73 0.262z" fill="#63a2d5"/>
<path class="skin" d="m0.0434 4.77c-0.0644 0.151-0.0198 0.403-0.146 0.519-0.197 0.182-0.381 0.495-0.518 0.856-0.151 0.405 0.407 0.56 0.67-0.0306-0.0459 0.468-0.0274 0.762-0.0579 1.16 0.158 0.32 0.363 0.184 0.508 0.054l0.0307-0.917-0.0087 0.907c0.0615 0.155 0.304 0.375 0.48 0.0218l-0.01-0.892 0.0516 0.848c0.0998 0.121 0.343 0.0744 0.511-0.189l-0.0719-0.711c0.0167 0.179-0.0279 0.391 0.101 0.508 0.112 0.139 0.223 0.103 0.335-0.0873-0.0455-0.683 0.0309-1.55-0.32-1.77l0.0437-0.407-1.51-0.175z" fill="#f7deb9"/>
<path class="skin" d="m-3.74-11.7c0.0658 0.744 0.0501 1.45 0.202 2.25 0 0-0.607 0.795-0.485 1.18 0.0654 0.205 0.553 0.252 0.553 0.252l0.144 0.798c0.418-0.0075 0.878-0.184 1.18-0.381-0.322 0.209-0.703 0.547-1.12 0.619 0.316 1.51 2.64 1.38 3.16 0.895l-0.436 0.276v0.757l2.4-0.0582 0.771-4.84-3.03-3.42-2.66-0.0437z" fill="#f7deb9"/>
<path class="shirt" d="m-0.728-5.01-0.509 1.02 2.2-0.844-0.0291-0.917z" fill="#fc0"/>
<path class="jacket" d="m-1.19-4.15c-0.574 1.33-2.27 2.31-0.815 3.75-0.208 2.27-0.212 3.78-0.276 5.51 0.824 0.12 1.72 0.029 2.43-0.16l-0.276-0.887c0.339-2.26 0.102-4.58-0.291-6.91 0.474 2.34 0.696 4.68 0.32 6.98 0.596 0.492 1.33 0.458 2.08 0.378 0.564-2.53 0.901-5.1 0.349-7.83 0.482 2.7 0.227 5.29-0.335 7.84l-0.189 0.48c0.786 0.0075 1.41-0.174 1.96-0.436-0.309-1.09-0.687-2.81-0.727-3.46-0.0399-0.655-0.0934-3.7-0.116-4.12 0.0147-0.85-0.211-1.27-0.378-1.79l-0.989-0.495z" fill="#d68b00"/>
<path class="shirt" d="m-0.139 4.13c-0.0438 0.221-0.0688 0.464 0.0294 0.698 0.667 0.179 1.31 0.448 2.02 0.279-0.0012-0.216-0.0112-0.439 0.0555-0.641-0.748 0.188-1.51-0.0588-2.1-0.336z" fill="#fc0"/>
<ellipse cx="-2.81" cy="-9.49" rx=".237" ry=".383"/>
<path d="m-3.22-10.5c0.195-0.269 0.583-0.379 0.982 0.108-0.355-0.417-0.701-0.521-0.982-0.108z" fill="#ffd42a"/>
<path class="hair" d="m-3.66-10.6 0.145-1c0.177-0.602 0.434-0.804 0.691-1 0.299 0.67-0.0743 1.04 2.07 2.53-0.0037 0.218 0.156 0.413 0.342 0.604 0.759-2.46 2.47 0.337 0.495 0.968l0.24-0.0144c0.276 0.85 0.298 1.86 0.276 2.9 0.0709 0.524-0.392 1.05-0.735 1.57 0.734 0.175 1.45 0.149 2.1-0.575-0.0012 0.282-0.226 0.415-0.378 0.597 0.685 0.117 1.26-0.071 1.67-0.695 0.12 0.146-0.028 0.37-0.0822 0.566 0.499-0.199 0.964-0.588 0.998-1.47-0.152-0.804-0.361-1.51-0.36-2.57 0.18-4.63-0.912-5.73-2.38-6.34-3.51-1.46-6.92 1.96-5.09 3.93z" fill="#956b45"/>
</g>
<g id="icon_player_female_right" class="icon_player_female" stroke="#000" stroke-width=".2">
<path class="outline" d="m0.481-14.9c-0.616-0.0268-1.27 0.0764-1.92 0.35-1.46 0.612-2.56 1.71-2.38 6.34 0.00136 1.06-0.208 1.77-0.36 2.57 0.0337 0.883 0.499 1.27 0.998 1.47-0.0542-0.196-0.202-0.419-0.0822-0.566 0.147 0.224 0.316 0.392 0.503 0.51-0.102 0.319-0.184 0.677-0.175 1.2-0.023 0.419-0.0763 3.46-0.116 4.12-0.04 0.655-0.419 2.37-0.728 3.46 0.142 0.0671 0.288 0.129 0.44 0.183 0.0879 0.553 0.478 1.62 1.12 2.28 0.247 2.48 0.432 4.81 0.523 6.9l0.0501-0.0057c-0.0455 0.316-0.0816 0.622 0.0517 0.911l3.5 0.0362c0.15-0.202 0.0242-0.34-0.0827-0.437-0.507-0.35-0.987-0.621-1.57-0.827 0.518-2.69 1.16-5.46 1.35-8.44 0.226-0.00407 0.451-0.0207 0.671-0.0527-0.0641-1.73-0.0687-3.24-0.276-5.51 1.46-1.44-0.241-2.42-0.814-3.75l-0.046-0.0191-0.42-0.839-0.189-0.0847v-0.716l-0.219-0.138c0.768 0.355 2.66 0.324 2.95-1.03l0.0558-0.239c0.00174 3.7e-5 0.00343-3.1e-5 0.00517 0l0.0176-0.0982 0.126-0.7s0.487-0.0474 0.553-0.253c0.122-0.383-0.485-1.18-0.485-1.18 0.0762-0.404 0.11-0.783 0.133-1.15 1.46-1.6-0.51-4.15-3.18-4.27z" fill="#784421"/>
<path class="shoes" d="m0.014 13.5c0.699 0.214 1.24 0.511 1.82 0.91 0.107 0.0974 0.233 0.235 0.0822 0.437l-3.5-0.0362c-0.192-0.416-0.0327-0.867 3.7e-5 -1.33z" fill="#784421"/>
<path class="pants" d="m1.62 5.13c-0.18 3.03-0.844 5.85-1.37 8.58l-1.93 0.218c-0.0916-2.09-0.277-4.42-0.524-6.9-0.89-0.916-1.3-2.62-1.08-2.63 0.06-0.0025 4.73 0.262 4.73 0.262z" fill="#63a2d5"/>
<path class="skin" d="m-0.0434 4.77c0.0644 0.151 0.0198 0.403 0.146 0.519 0.197 0.182 0.381 0.495 0.518 0.856 0.151 0.405-0.407 0.56-0.67-0.0306 0.0459 0.468 0.0274 0.762 0.0579 1.16-0.158 0.32-0.363 0.184-0.508 0.054l-0.0307-0.917 0.0087 0.907c-0.0615 0.155-0.304 0.375-0.48 0.0218l0.01-0.892-0.0516 0.848c-0.0998 0.121-0.343 0.0744-0.511-0.189l0.0719-0.711c-0.0167 0.179 0.0279 0.391-0.101 0.508-0.112 0.139-0.223 0.103-0.335-0.0873 0.0455-0.683-0.0309-1.55 0.32-1.77l-0.0437-0.407 1.51-0.175z" fill="#f7deb9"/>
<path class="skin" d="m3.74-11.7c-0.0658 0.744-0.0501 1.45-0.202 2.25 0 0 0.607 0.795 0.485 1.18-0.0654 0.205-0.553 0.252-0.553 0.252l-0.144 0.798c-0.418-0.0075-0.878-0.184-1.18-0.381 0.322 0.209 0.703 0.547 1.12 0.619-0.316 1.51-2.64 1.38-3.16 0.895l0.436 0.276v0.757l-2.4-0.0582-0.771-4.84 3.03-3.42 2.66-0.0437z" fill="#f7deb9"/>
<path class="shirt" d="m0.728-5.01 0.509 1.02-2.2-0.844 0.0291-0.917z" fill="#fc0"/>
<path class="jacket" d="m1.19-4.15c0.574 1.33 2.27 2.31 0.815 3.75 0.208 2.27 0.212 3.78 0.276 5.51-0.824 0.12-1.72 0.029-2.43-0.16l0.276-0.887c-0.339-2.26-0.102-4.58 0.291-6.91-0.474 2.34-0.696 4.68-0.32 6.98-0.596 0.492-1.33 0.458-2.08 0.378-0.564-2.53-0.901-5.1-0.349-7.83-0.482 2.7-0.227 5.29 0.335 7.84l0.189 0.48c-0.786 0.0075-1.41-0.174-1.96-0.436 0.309-1.09 0.687-2.81 0.727-3.46 0.0399-0.655 0.0934-3.7 0.116-4.12-0.0147-0.85 0.211-1.27 0.378-1.79l0.989-0.495z" fill="#d68b00"/>
<path class="shirt" d="m0.139 4.13c0.0438 0.221 0.0688 0.464-0.0294 0.698-0.667 0.179-1.31 0.448-2.02 0.279 0.0012-0.216 0.0112-0.439-0.0555-0.641 0.748 0.188 1.51-0.0588 2.1-0.336z" fill="#fc0"/>
<ellipse transform="scale(-1,1)" cx="-2.81" cy="-9.49" rx=".237" ry=".383"/>
<path d="m3.22-10.5c-0.195-0.269-0.583-0.379-0.982 0.108 0.355-0.417 0.701-0.521 0.982-0.108z" fill="#ffd42a"/>
<path class="hair" d="m3.66-10.6-0.145-1c-0.177-0.602-0.434-0.804-0.691-1-0.299 0.67 0.0743 1.04-2.07 2.53 0.0037 0.218-0.156 0.413-0.342 0.604-0.759-2.46-2.47 0.337-0.495 0.968l-0.24-0.0144c-0.276 0.85-0.298 1.86-0.276 2.9-0.0709 0.524 0.392 1.05 0.735 1.57-0.734 0.175-1.45 0.149-2.1-0.575 0.0012 0.282 0.226 0.415 0.378 0.597-0.685 0.117-1.26-0.071-1.67-0.695-0.12 0.146 0.028 0.37 0.0822 0.566-0.499-0.199-0.964-0.588-0.998-1.47 0.152-0.804 0.361-1.51 0.36-2.57-0.18-4.63 0.912-5.73 2.38-6.34 3.51-1.46 6.92 1.96 5.09 3.93z" fill="#956b45"/>
</g>
<g id="icon_player_male_left" class="icon_player_male">
<g>
<g stroke="#000" stroke-linecap="round" stroke-linejoin="round" stroke-width=".224">
<path class="outline" d="m-1.45-14.9c-0.0231 0.237-0.0538 0.473 0.0791 0.735-0.507-0.146-1.05-0.254-1.55-0.511-0.104 0.201 0.086 0.467 0.151 0.669-0.335-0.14-0.693-0.312-1.09-0.538-0.0126 0.354-0.0354 0.708 0.144 1.06-0.187-0.0453-0.362-0.118-0.512-0.249 0.0266 0.763 0.182 1.48 0.943 2-0.0782 0.253-0.148 0.52-0.195 0.822-0.0794 0.507-0.0157 1.11 0 1.68-0.0674 0.493-0.337 0.805-0.551 1.17 0.172 0.164 0.342 0.33 0.616 0.341l0.236 1.04c0.275-0.182 0.285 0.183 0.0331 0.158 0.347 0.423 0.211 0.791 1.4 1.13 0.586 0.0156 1.18-0.118 1.75-0.308l-0.387 0.19c0.0856 0.189 0.105 0.342 0.0982 0.515l-0.24 0.0754-0.504 1.01-0.0336 0.0114c-1.3 2.97-1.12 6.6-1.39 9.65 0.272 0.0657 0.568 0.119 0.882 0.158 0.515 2.56 1.03 5.11 1.45 7.76-0.497 0.214-1 0.374-1.47 0.78-0.0869 0.154-0.325 0.332 0.0279 0.418l3.41-0.0739c0.0316-0.301 0.057-0.599-0.00879-0.863l-0.0124-0.0145c0.059-0.0027 0.118-0.0061 0.176-0.0098 0.16-2.25 0.13-4.48 0.538-6.76 0.26-0.519 0.694-0.934 0.735-1.58 0.331-0.0862 0.654-0.186 0.966-0.3-0.137-1.8-0.457-3.51-0.587-5.12-0.16-1.98-0.305-3.81-1.1-5.27l-0.0103 0.00362-0.361-0.653-0.193 0.061c-0.0524-0.346-0.1-0.689 0.093-0.939l0.0103-0.0739 5.17e-4 5.17e-4c2.2e-4 1.33e-4 0.00133 3.7e-4 0.00155 5.17e-4l5.17e-4 5.17e-4v0.00103c1.03-1.07 1.86-2.23 1.59-4.64-0.256-2.25-1.77-3.12-4.17-3.09-0.38-0.0749-0.676-0.281-0.958-0.453z" fill="#784421"/>
<path class="shoes" d="m1.84 14.8-3.41 0.0743c-0.353-0.0851-0.115-0.263-0.0278-0.418 0.489-0.428 1.03-0.583 1.55-0.817l1.32-0.371 0.566 0.668c0.0658 0.264 0.0406 0.562 9e-3 0.863z" fill="#784421"/>
<path class="pants" d="m3.24 5.16c0.166 0.91-0.396 1.38-0.709 2.01-0.408 2.28-0.378 4.51-0.538 6.76-0.667 0.0418-1.35 0.026-2.13-0.21-0.433-2.76-0.974-5.41-1.51-8.07l4.7-0.748z" fill="#ac9d93"/>
<path class="skin" d="m-0.312-4.75c0.0312-0.285 0.0429-0.48-0.0788-0.748l0.387-0.19c-0.569 0.19-1.17 0.324-1.75 0.308-1.19-0.343-1.05-0.712-1.4-1.14 0.6 0.0592 0.796-0.427 1.14-0.702-0.293 0.294-0.505 0.611-1.17 0.545l-0.236-1.04c-0.275-0.0112-0.444-0.178-0.617-0.341 0.214-0.362 0.484-0.675 0.551-1.17-0.0157-0.571-0.0794-1.17 0-1.68 0.12-0.767 0.38-1.31 0.577-1.96l3.25 0.197 2.23 2.45-0.499 3.57c-0.248 0.321-0.0985 0.798-0.0523 1.23z" fill="#f7ddbd"/>
<path class="jacket" d="m2.55-5.11c0.797 1.47 0.942 3.29 1.1 5.27 0.13 1.61 0.45 3.32 0.587 5.12-2.18 0.793-4.93 0.91-6.7 0.482 0.269-3.04 0.0961-6.68 1.39-9.65z" fill="#8a508d"/>
<path class="hair" d="m2.09-6.71c-0.722-0.328-1.31-0.747-1.22-1.61-0.142 0.0599-0.325 0.0988-0.455 0.0976 0.411-0.0487 0.835-0.405 0.926-0.729 0.357-1.64-1.31-1.62-1.23-0.749-0.0846 0.162-0.0276 0.321-0.129 0.387-0.0896 0.0577-0.334 0.0343-0.455-0.0067-0.0981-1.88-0.318-2.95-2.79-2.38-0.786-0.516-0.946-1.24-0.972-2.02 0.15 0.132 0.325 0.204 0.512 0.249-0.18-0.354-0.157-0.709-0.144-1.06 0.397 0.226 0.754 0.398 1.09 0.538-0.0649-0.201-0.254-0.467-0.151-0.669 0.507 0.257 1.05 0.365 1.55 0.511-0.133-0.261-0.102-0.497-0.0788-0.735 0.282 0.173 0.578 0.378 0.958 0.453 2.41-0.0298 3.92 0.845 4.17 3.09 0.274 2.41-0.559 3.57-1.59 4.64z" fill="#926b44"/>
<path class="shirt" d="m2.57-5.05-0.39-0.705-2.71 0.854-0.575 1.15c1.13-0.596 2.34-1.05 3.67-1.3z" fill="#eeda22"/>
<path class="skin" d="m0.32 4.84c-0.177 0.369-0.241 0.713-0.557 1.11-0.285 0.836-0.107 0.891 0.501 0.223v1.15c-0.0067 0.194 0.428 0.294 0.445 0l0.018-0.798 0.0368 0.779c-0.0022 0.481 0.507 0.456 0.482-0.0557l0.018-0.687 0.0368 0.668c0.0045 0.344 0.468 0.313 0.464-0.0927l-0.0368-0.649 0.0743 0.612c0.142-0.018 0.285-0.0375 0.427-0.26 0.0231-0.806-0.0705-1.18-0.167-1.54-0.0664-0.351-0.179-0.64-0.557-0.575z" fill="#f7ddbd"/>
<path class="shirt" d="m2.21 4.71-0.0853 0.59c-0.665-0.0465-1.29-0.0305-1.88-0.315l-0.0135-0.505 0.584-0.486 1.15 0.367z" fill="#eeda22"/>
<path class="jacket" d="m2.68-2.92c-0.641-2.16-2.95-0.785-2.77 0.42 0.262 2.31 0.409 4.63 0.184 6.94 0.493 0.421 1.35 0.375 2.18 0.354 0.601-2.45 0.716-5.02 0.407-7.72z" fill="#8a508d"/>
</g>
<ellipse transform="scale(-1,1)" cx="2.74" cy="-9.24" rx=".294" ry=".52"/>
</g>
<path d="m-3.1-10.2c0.321-0.289 0.756-0.189 1 0.0835" fill="none" stroke="#000" stroke-linecap="round" stroke-linejoin="round" stroke-width=".224"/>
</g>
<g id="icon_player_female_back" class="icon_player_female" stroke="#000" stroke-linecap="round" stroke-width=".2">
<g fill="#784421">
<path class="outline" d="m0.302-14.9c-0.553-0.0129-1.13 0.158-1.69 0.577-0.887 0.0557-1.73 0.373-2.26 2.64-0.0784 0.444-0.0913 0.894-0.0718 1.34h-0.0362c-0.628 0.137-0.719 1.51 0.214 1.8 0.123 1.12 0.158 2.15-0.507 2.94 0.168 0.358 0.445 0.702 0.803 0.959-1.24 1.56-1.21 5.21-1.61 8.13-0.0248-0.0135-0.0492-0.0274-0.0734-0.0419l-0.093 0.651c0.0449 0.0738 0.164 0.136 0.316 0.186l-0.0382 0.553c-0.0781 1.7 0.57 2.04 1 1.98 0.225-0.0308 0.358-0.305 0.248-0.61-0.12-0.33-0.177-0.681-0.172-0.958-0.03-0.281 0.246-0.303 0.225-0.557-0.0214-0.254-0.263-0.252-0.263-0.252l5.17e-4 -0.0372c0.0462-0.00553 0.0831-0.0142 0.108-0.0258l0.00258-0.0424c0.047 0.0289 0.0998 0.0561 0.157 0.0822 0.491 3.15 0.685 6.35 1.16 9.52-0.0362 0.0596-0.0653 0.109-0.137 0.185-0.168 0.177-0.434 0.448-0.466 0.731l2.19-0.03c0.0678-0.331-0.046-0.612-0.031-0.966-0.0199-5e-3 -0.0402-0.0098-0.0599-0.0145 0.228-2.62 0.411-5.26 0.634-7.86-0.549 0.0016-0.985 0.2-1.47 0.312 1.02-0.548 2.06-0.539 3.1-0.0367-0.479-0.157-0.971-0.273-1.5-0.284 0.36 2.74 0.49 5.3 0.735 7.94l0.0109-5.17e-4c-0.0023 0.318-0.0952 0.582-0.0326 0.888l2.19 0.0305c-0.0317-0.283-0.297-0.554-0.465-0.731-0.11-0.116-0.121-0.171-0.208-0.294l0.0481-0.0036c0.253-3.2 0.717-6.3 1.15-9.41 0.0618-0.0298 0.109-0.0612 0.139-0.093l0.00724 0.121c0.0015 6.95e-4 0.00263 0.0014 0.00413 0.00207-0.0667 0.0291-0.14 0.0919-0.152 0.227-0.0206 0.254 0.255 0.276 0.225 0.557 0.0047 0.277-0.0523 0.628-0.172 0.958-0.111 0.305 0.0225 0.579 0.247 0.61 0.432 0.0592 1.08-0.281 1-1.98l-0.0362-0.522c0.16-0.059 0.286-0.13 0.332-0.205l-0.093-0.651c-0.0245 0.0146-0.0496 0.0292-0.0749 0.0434-0.523-2.28-0.363-6.98-1.66-8.06 0.359-0.215 0.675-0.541 0.892-1.01-0.737-0.554-0.68-1.69-0.568-2.91h0.0481c0.291-0.0584 1.19-1.23 0.133-1.79l-0.0661-5.16e-4c-0.0021-0.145-0.0089-0.287-0.0222-0.426 0.33-1.75-1.33-4.13-3.3-4.18z"/>
<path class="shoes" d="m-2.19 13.8c-0.0979 0.133-0.105 0.188-0.219 0.309-0.168 0.177-0.434 0.448-0.465 0.731l2.19-0.0301c0.0678-0.331-0.046-0.612-0.031-0.967-0.544-0.136-1.04-0.152-1.47-0.0432z"/>
<path class="shoes" d="m2.21 13.8c0.0979 0.133 0.105 0.188 0.219 0.309 0.168 0.177 0.434 0.448 0.465 0.731l-2.19-0.0302c-0.0678-0.331 0.046-0.612 0.031-0.967 0.515-0.224 0.992-0.112 1.47-0.0432z"/>
</g>
<path class="pants" d="m-3.45 4.3c0.508 3.2 0.701 6.45 1.19 9.67l1.49-0.0552c0.231-2.64 0.414-5.3 0.638-7.92-0.549 0.0016-0.985 0.2-1.47 0.312 1.02-0.548 2.06-0.539 3.1-0.0363-0.479-0.157-0.971-0.273-1.5-0.284 0.36 2.74 0.49 5.3 0.735 7.94l1.54-0.11c0.253-3.21 0.717-6.3 1.15-9.42l-2.34-0.934z" fill="#63a2d5"/>
<path class="skin" d="m4.65 3.73 0.0753 1.09c0.0781 1.7-0.571 2.04-1 1.98-0.225-0.0308-0.358-0.305-0.247-0.61 0.12-0.33 0.177-0.681 0.172-0.957 0.03-0.281-0.246-0.303-0.226-0.557 0.0214-0.254 0.263-0.253 0.263-0.253l-0.012-0.667z" fill="#f7deb9"/>
<path class="skin" d="m-4.66 3.77-0.0752 1.09c-0.0781 1.7 0.571 2.04 1 1.98 0.225-0.0308 0.358-0.305 0.247-0.61-0.12-0.33-0.177-0.681-0.172-0.957-0.03-0.281 0.246-0.303 0.226-0.557-0.0214-0.254-0.263-0.253-0.263-0.253l0.012-0.667z" fill="#f7deb9"/>
<path class="shirt" d="m3.57 4.45c0.208 0.0974 1.29-0.098 1.45-0.356l-0.0929-0.65c-0.382 0.229-0.866 0.415-1.4 0.347z" fill="#fc0"/>
<path class="shirt" d="m-3.59 4.4c-0.208 0.0972-1.27-0.0236-1.43-0.281l0.0929-0.65c0.382 0.229 0.841 0.341 1.37 0.272z" fill="#fc0"/>
<path class="jacket" d="m-4.85 3.53c0.418-3.06 0.358-6.92 1.78-8.35l5.51-0.324 0.639 0.492c1.42 0.905 1.23 5.85 1.78 8.17-0.438 0.262-0.877 0.393-1.32 0.207 0.0045-0.944-0.432-2.14-0.681-3.03-0.158-1.32 0.144-2.63 0.294-3.95-0.141 1.27-0.35 2.56-0.326 3.95 0.442 1.15 0.735 2.32 0.745 3.61-0.411 0.567-6.16 0.865-7.26-0.02 0.246-1.2 0.546-2.36 0.777-3.59 0.203-1.31-0.121-2.59-0.276-3.87 0.138 1.29 0.444 2.57 0.213 3.87-0.111 0.926-0.407 2.15-0.668 3.04-0.445 0.0563-0.836-0.058-1.22-0.207z" fill="#d68b00"/>
<path class="skin" d="m-3.76-10.3 7.45 0.0459c1.06 0.556 0.158 1.73-0.133 1.79l-6.99-0.0093c-1.05-0.2-0.98-1.68-0.328-1.82z" fill="#f7deb9"/>
<path class="hair" d="m-1.39-14.3c2.58-1.92 5.42 1.37 5 3.6 0.172 1.79-0.718 4.22 0.476 5.12-0.738 1.6-2.63 1.53-3.38 1.09-0.354 0.386-0.851 0.711-1.4-0.0259-1.57 0.829-2.88-0.065-3.35-1.06 1.26-1.51 0.0075-3.85 0.401-6.08 0.524-2.27 1.37-2.59 2.26-2.64z" fill="#956b45"/>
</g>
<g id="icon_player_female_front" class="icon_player_female" stroke="#000" stroke-width=".2">
<g>
<path class="outline" d="m-0.355-15.1c-1.84 0.0148-3.83 1.29-3.46 4.53l0.077 0.0083c-0.106 0.0495-0.314 0.199-0.297 0.601 0.02 0.478 0.16 0.902 0.133 0.941l-0.00103 0.00103-5.17e-4 5.16e-4h-5.17e-4l-5.17e-4 5.17e-4h-5.16e-4c-2.1e-4 5.4e-5 -0.0013 4.85e-4 -0.0016 5.17e-4h-0.00103l-5.17e-4 -5.17e-4h-5.17e-4c-0.0135-0.0029-0.0407-0.0354-0.0873-0.104l-0.0072 1.23c0.15 0.601 0.313 0.971 0.451 1.8 0.059 0.432-0.052 0.854-0.52 1.28 0.511 0.391 0.946 0.348 1.39 0.504 0.158-0.0596 0.313-0.126 0.468-0.193-0.341 0.152-0.822 0.404-1.05 0.701-0.716 0.952-0.918 2.62-1.14 4.17-0.164 1.12-0.33 2.29-0.433 3.01-7e-3 0.0497 0.0044 0.094 0.03 0.133-0.0461-0.0101-0.0924-0.0232-0.139-0.0403l-0.0537 0.639c0.0217 0.0137 0.0429 0.027 0.0646 0.0398-0.0313 0.486-0.0594 0.972-0.0196 1.46 0.24 0.592 0.784 1.42 1.09 1.12 0.262-0.258 0.126-0.696 0.0842-0.99 0 0-0.413 0.0018-0.507-0.106-0.138-0.159-0.164-0.589-0.164-0.589s0.0396 0.483 0.201 0.607c0.109 0.0839 0.47 0.0692 0.47 0.0692-0.0409-0.397-0.0146-0.904 0.0357-1.31 0.0392-0.0049 0.0786-0.0113 0.118-0.0186l0.0362-0.103c-0.0132 0.0789-0.0249 0.159-0.0351 0.239-0.0417 0.0106-0.0641 0.016-0.0641 0.016l0.0119 0.538c0.469 2.62 0.762 6.05 1.02 8.59 0.0227-0.0052 0.0462-0.01 0.0698-0.0145l-0.0016 0.0031c-0.342 0.382-0.767 0.759-0.758 1.16 0.0282 0.31 2.02 0.114 2.55-0.244 0.0328-0.281 0.0602-0.562 0.0217-0.842 0.0164 0.0029 0.0328 0.0054 0.0491 0.0083-0.0044-2.17 0.491-7.54 0.654-7.54 0.163 0.0044 0.764 5.37 0.736 7.56 0.0093-0.0021 0.0187-0.0041 0.0279-0.0062-0.0312 0.268-0.0049 0.536 0.0264 0.804 0.536 0.359 2.52 0.555 2.55 0.245 0.0092-0.406-0.416-0.782-0.758-1.16l-0.0372-0.0724c0.252-2.58 0.733-6.28 1.13-8.85 0.0308 0.347 0.0408 0.733 0.0083 1.05 0 0 0.361 0.0146 0.47-0.0692 0.161-0.124 0.201-0.607 0.201-0.607s-0.0259 0.431-0.164 0.589c-0.0949 0.108-0.507 0.106-0.507 0.106-0.0418 0.293-0.177 0.732 0.0842 0.99 0.309 0.305 0.852-0.526 1.09-1.12 0.0411-0.499 0.0096-0.999-0.0227-1.5 0.0573-0.0219 0.115-0.047 0.173-0.0749l-0.136-0.656c-0.0179 0.0066-0.0359 0.0127-0.0537 0.0181 0.0196-0.0297 0.028-0.0618 0.0232-0.0961-0.0841-0.607-0.239-1.71-0.418-2.93-0.248-1.68-0.522-3.58-1.16-4.33-0.123-0.143-0.299-0.269-0.487-0.376l0.0465 0.0196c0.537-0.134 1.05-0.297 1.35-0.442-0.251-0.391-0.586-0.577-0.588-1.23-7e-3 -0.53 0.172-2.12 0.507-2.65 0.0136-0.218-0.215-0.48-0.0863-0.725 0.0879-0.166 0.128-0.4 0.126-0.62-9.34e-4 0.263-0.0928 0.568-0.305 0.837l-0.0016-0.0336c0.134-0.199 0.233-0.461 0.226-0.795-0.0066-0.386-0.145-0.54-0.285-0.596l-0.0021-0.0512c0.207 0.0414 0.344 0.265 0.365 0.554-0.0134-0.223-0.0719-0.418-0.168-0.491l-0.0176-0.307c0.0784-0.469-0.343-4.37-2.58-4l0.0501 0.0873c-0.488-0.248-1.08-0.383-1.7-0.378zm-3.46 4.53-0.0103-9.99e-4c-0.127 0.049-0.208 0.156-0.256 0.291 0.0524-0.118 0.138-0.217 0.267-0.283-2.54e-4 -0.0022-2.65e-4 -0.0045-5.17e-4 -0.0067zm-0.266 0.29c-0.0705 0.159-0.0807 0.355-0.0548 0.559-0.0136-0.192-0.0032-0.396 0.0548-0.559zm-0.0548 0.559c0.0165 0.234 0.0683 0.451 0.113 0.558 0.0089 0.0139 0.0179 0.0275 0.0269 0.0408l5.17e-4 -0.0506c-0.0641-0.175-0.117-0.365-0.14-0.548z" fill="#f7ddbd"/>
<path class="skin" d="m-1.25-5.83-0.111 2.02 2.69-0.25-0.111-1.88z" fill="#f7ddbd"/>
<path class="shirt" d="m-1.44-4.39c0.915 0.329 1.85 0.5 2.87 0l0.0586 5.7-3.03-0.392z" fill="#fc0"/>
<path class="skin" d="m-3.25-11.3c-0.127 0.13 0.0378 0.664 0.0378 0.664s-0.145 0.294-0.432 0.123c0 0-0.379 0.0858-0.357 0.623 0.0267 0.637 0.196 1.29 0.862 1.23l0.129 1.18c-0.0322 1.01-0.0738 1.87 1.58 1.81 0.865 0.52 1.8 0.611 2.84-4.4e-5 0.814-0.437 1.27-1.08 1.55-1.81l0.145-1.01s0.93-0.341 0.911-1.35c-0.0134-0.789-0.577-0.606-0.577-0.606l-0.188-0.217-0.55-2.14-5.22 0.0484z" fill="#f7ddbd"/>
</g>
<path d="m-0.353-8.06c0.0959 0.176 0.583 0.224 0.681 0.0088" fill="none" stroke-linecap="round"/>
<g>
<path class="skin" d="m4.79 4.17c0.0335 0.519 0.0689 1.04 0.0262 1.56-0.24 0.592-0.784 1.42-1.09 1.12-0.262-0.258-0.126-0.697-0.084-0.99 0 0 0.413 0.0021 0.508-0.106 0.138-0.159 0.164-0.589 0.164-0.589s-0.04 0.483-0.201 0.607c-0.109 0.0839-0.47 0.0692-0.47 0.0692 0.0508-0.492-0.0022-1.15-0.0753-1.58z" fill="#f7ddbd"/>
<path class="shirt" d="m4.97 4.15c-0.499 0.241-0.981 0.248-1.46 0.206l-0.35-0.982c0.579-0.0658 1.1 0.328 1.67 0.12z" fill="#fc0" stroke-linecap="round" stroke-linejoin="round" stroke-miterlimit="0"/>
<path class="skin" d="m-4.9 4.12c-0.0335 0.519-0.0686 1.04-0.0262 1.56 0.24 0.592 0.784 1.42 1.09 1.12 0.262-0.258 0.126-0.697 0.084-0.99 0 0-0.413 0.0021-0.508-0.106-0.138-0.159-0.164-0.589-0.164-0.589s0.04 0.483 0.201 0.607c0.109 0.0839 0.47 0.0692 0.47 0.0692-0.0507-0.492 0.0022-1.15 0.0753-1.58z" fill="#f7ddbd"/>
<path class="shoes" d="m2.54 13.7c0.342 0.382 0.767 0.759 0.758 1.16-0.0282 0.31-2.02 0.114-2.55-0.245-0.0431-0.37-0.0774-0.739 0.0367-1.11l1.52-0.263z" fill="#784421"/>
<path class="shoes" d="m-2.56 13.7c-0.342 0.382-0.767 0.759-0.758 1.16 0.0282 0.31 2.02 0.114 2.55-0.245 0.0431-0.37 0.0774-0.739-0.0367-1.11l-1.52-0.263z" fill="#784421"/>
<path class="pants" d="m-3.64 5.15c0.469 2.62 0.762 6.05 1.02 8.59 0.527-0.12 1.29-0.0407 1.93 0.0744-0.0044-2.17 0.492-7.54 0.654-7.54 0.163 0.0044 0.764 5.37 0.736 7.56 0.617-0.142 1.21-0.132 1.79 0 0.252-2.64 0.765-6.58 1.17-9.23-2.34-1.33-7.31 3e-3 -7.31 3e-3z" fill="#63a2d5"/>
<path class="shirt" d="m-4.97 4.18c0.458 0.29 0.917 0.365 1.38 0.28l0.35-0.998c-0.579-0.0658-1.1 0.287-1.67 0.0787z" fill="#fc0" stroke-linecap="round" stroke-linejoin="round" stroke-miterlimit="0"/>
</g>
<ellipse cx="-1.42" cy="-9.33" rx=".293" ry=".418"/>
<ellipse cx="1.41" cy="-9.3" rx=".293" ry=".418"/>
<g fill="none" stroke-linecap="round">
<path d="m-2.06-10.2c0.525-0.318 0.892-0.174 1.1 2.2e-5"/>
<path d="m0.93-10.2c0.525-0.318 0.892-0.174 1.1 2.2e-5"/>
<path d="m-0.856-6.91c0.257 0.341 1.42 0.353 1.66-0.0088"/>
</g>
<g>
<path class="jacket" d="m4.8 3.42c-0.0841-0.607-0.239-1.71-0.418-2.93-0.248-1.68-0.522-3.58-1.16-4.33-0.426-0.494-1.48-0.784-1.48-0.784l-1.74 4.26-1.8-4.23s-1.06 0.377-1.43 0.859c-0.716 0.952-0.918 2.62-1.14 4.17-0.164 1.12-0.33 2.29-0.432 3.01-0.0625 0.443 1.32 0.465 1.38 0.201 0.201-0.901 0.521-2.02 0.569-2.79 0.0489-0.789-0.48-1.02-0.398-1.77 0.0483-0.439 0.285-0.905 0.324-1.35-0.03 0.417-0.249 0.842-0.289 1.26-0.0709 0.744 0.49 1.11 0.441 1.87-0.0856 1.32-0.66 2.46-0.821 3.75 1.01 0.352 2.17 0.216 3.27 0.073 0.283-0.0639 0.384-0.192 0.328-0.289l-0.0088-4.8-0.0262 4.79c-0.0126 0.011-0.0655 0.194 0.203 0.307 0.322 0.176 2.73 0.399 3.49-0.0576-0.199-1.42-0.726-2.33-0.82-3.79-0.034-0.529 0.531-1.18 0.486-1.7-0.0419-0.488-0.337-0.932-0.354-1.42 0.0236 0.51 0.32 0.887 0.363 1.39 0.0442 0.528-0.55 1.22-0.526 1.76 0.0421 0.933 0.396 1.8 0.626 2.68 0.36 0.32 1.4 0.18 1.36-0.128z" fill="#d68b00" stroke-linejoin="round"/>
<path class="lapel" d="m1.36-4.95-1.44 4.69c0.658-0.832 1.32-1.58 1.97-2.5-0.083-0.126-0.2-0.253-0.353-0.379 0.245-0.19 0.582-0.354 0.719-0.575-0.166-0.577-0.606-0.804-0.895-1.24z" fill="#d63e00"/>
<path class="lapel" d="m-1.4-4.93 1.39 4.71c-0.658-0.832-1.32-1.58-1.97-2.5 0.083-0.126 0.2-0.253 0.353-0.379-0.245-0.19-0.582-0.354-0.719-0.575 0.166-0.577 0.658-0.817 0.948-1.25z" fill="#d63e00"/>
<path class="hair" d="m1.32-14.7c2.23-0.373 2.65 3.53 2.58 4l0.0174 0.307c0.201 0.153 0.236 0.835 0.0453 1.2-0.129 0.244 0.1 0.507 0.0863 0.724-0.336 0.537-0.514 2.12-0.507 2.65 0.0021 0.648 0.337 0.834 0.588 1.22-0.296 0.146-0.81 0.309-1.35 0.443l-1.53-0.646-0.0123-0.78c0.584-0.254 1.6-1.61 1.86-2.89 1.34-0.564 1.14-2.14 0.456-1.98l-0.354 0.283c-0.874-0.354-1.46-0.902-1.68-2.2-0.542 0.9-0.79 1.35-2.34 1.73 0.708-0.541 0.679-1.19 0.928-1.79-0.71 1.47-2.84 1.91-3.36 1.9-0.0691 0.0537-0.148 0.0956-0.269 0.0898l-0.278-0.0286c-0.467 0.18-0.309 1.14-0.198 1.41 0.238 0.372 0.502 0.52 0.857 0.441 0.127 1.29 0.739 2.45 1.91 3.09l-0.0737 0.825c-0.48 0.087-0.897 0.331-1.34 0.5-0.448-0.156-0.883-0.114-1.39-0.505 0.468-0.422 0.579-0.843 0.52-1.28-0.138-0.831-0.301-1.2-0.451-1.8l0.0075-1.28c-0.189-0.515-0.276-1.15 0.182-1.39-0.499-4.32 3.2-5.15 5.15-4.16z" fill="#926a46" stroke-linecap="round" stroke-linejoin="round" stroke-miterlimit="0"/>
</g>
</g>
<g id="icon_player_male_right" class="icon_player_male">
<g>
<g stroke="#000" stroke-linecap="round" stroke-linejoin="round" stroke-width=".224">
<path class="outline" d="m1.45-14.9c-0.282 0.173-0.578 0.378-0.958 0.453-2.41-0.0298-3.92 0.845-4.17 3.09-0.274 2.41 0.559 3.57 1.59 4.64v-1e-3c8.29e-4 -3.77e-4 0.0018-0.0012 0.0026-0.0016l0.0103 0.0739c0.193 0.25 0.145 0.593 0.093 0.939l-0.193-0.061-0.361 0.653-0.0103-0.0036c-0.797 1.47-0.942 3.29-1.1 5.27-0.13 1.61-0.45 3.32-0.587 5.12 0.312 0.114 0.635 0.213 0.966 0.3 0.0418 0.65 0.475 1.07 0.735 1.58 0.408 2.28 0.378 4.51 0.538 6.76 0.0586 0.0037 0.117 0.0071 0.176 0.0098l-0.0124 0.0145c-0.0658 0.264-0.0404 0.562-0.0088 0.863l3.41 0.0739c0.353-0.0851 0.115-0.263 0.0279-0.418-0.463-0.406-0.97-0.566-1.47-0.78 0.417-2.65 0.934-5.21 1.45-7.76 0.313-0.0395 0.609-0.0924 0.882-0.158-0.269-3.04-0.0965-6.68-1.39-9.65l-0.0336-0.0114-0.504-1.01-0.24-0.0754v-5.17e-4c-0.0068-0.173 0.0126-0.325 0.0982-0.514l-0.387-0.19c0.569 0.19 1.17 0.324 1.75 0.308 1.19-0.343 1.05-0.712 1.4-1.13-0.252 0.0249-0.151-0.223 0.0331-0.158l0.236-1.04c0.275-0.0112 0.444-0.177 0.616-0.341-0.214-0.362-0.483-0.675-0.551-1.17 0.0157-0.571 0.0794-1.17 0-1.68-0.0473-0.302-0.117-0.569-0.195-0.822 0.76-0.515 0.916-1.23 0.943-2-0.15 0.132-0.325 0.204-0.512 0.249 0.18-0.354 0.157-0.708 0.144-1.06-0.397 0.226-0.754 0.398-1.09 0.538 0.0649-0.201 0.255-0.467 0.151-0.669-0.507 0.257-1.05 0.365-1.55 0.511 0.133-0.261 0.102-0.498 0.0791-0.735z" fill="#784421"/>
<path class="shoes" d="m-1.84 14.8 3.41 0.0743c0.353-0.0851 0.115-0.263 0.0278-0.418-0.489-0.428-1.03-0.583-1.55-0.817l-1.32-0.371-0.566 0.668c-0.0658 0.264-0.0406 0.562-9e-3 0.863z" fill="#784421"/>
<path class="pants" d="m-3.24 5.16c-0.166 0.91 0.396 1.38 0.709 2.01 0.408 2.28 0.378 4.51 0.538 6.76 0.667 0.0418 1.35 0.026 2.13-0.21 0.433-2.76 0.974-5.41 1.51-8.07l-4.7-0.748z" fill="#ac9d93"/>
<path class="skin" d="m0.312-4.75c-0.0312-0.285-0.0429-0.48 0.0788-0.748l-0.387-0.19c0.569 0.19 1.17 0.324 1.75 0.308 1.19-0.343 1.05-0.712 1.4-1.14-0.6 0.0592-0.796-0.427-1.14-0.702 0.293 0.294 0.505 0.611 1.17 0.545l0.236-1.04c0.275-0.0112 0.444-0.178 0.617-0.341-0.214-0.362-0.484-0.675-0.551-1.17 0.0157-0.571 0.0794-1.17 0-1.68-0.12-0.767-0.38-1.31-0.577-1.96l-3.25 0.197-2.23 2.45 0.499 3.57c0.248 0.321 0.0985 0.798 0.0523 1.23z" fill="#f7ddbd"/>
<path class="jacket" d="m-2.55-5.11c-0.797 1.47-0.942 3.29-1.1 5.27-0.13 1.61-0.45 3.32-0.587 5.12 2.18 0.793 4.93 0.91 6.7 0.482-0.269-3.04-0.0961-6.68-1.39-9.65z" fill="#8a508d"/>
<path class="hair" d="m-2.09-6.71c0.722-0.328 1.31-0.747 1.22-1.61 0.142 0.0599 0.325 0.0988 0.455 0.0976-0.411-0.0487-0.835-0.405-0.926-0.729-0.357-1.64 1.31-1.62 1.23-0.749 0.0846 0.162 0.0276 0.321 0.129 0.387 0.0896 0.0577 0.334 0.0343 0.455-0.0067 0.0981-1.88 0.318-2.95 2.79-2.38 0.786-0.516 0.946-1.24 0.972-2.02-0.15 0.132-0.325 0.204-0.512 0.249 0.18-0.354 0.157-0.709 0.144-1.06-0.397 0.226-0.754 0.398-1.09 0.538 0.0649-0.201 0.254-0.467 0.151-0.669-0.507 0.257-1.05 0.365-1.55 0.511 0.133-0.261 0.102-0.497 0.0788-0.735-0.282 0.173-0.578 0.378-0.958 0.453-2.41-0.0298-3.92 0.845-4.17 3.09-0.274 2.41 0.559 3.57 1.59 4.64z" fill="#926b44"/>
<path class="shirt" d="m-2.57-5.05 0.39-0.705 2.71 0.854 0.575 1.15c-1.13-0.596-2.34-1.05-3.67-1.3z" fill="#eeda22"/>
<path class="skin" d="m-0.32 4.84c0.177 0.369 0.241 0.713 0.557 1.11 0.285 0.836 0.107 0.891-0.501 0.223v1.15c0.0067 0.194-0.428 0.294-0.445 0l-0.018-0.798-0.0368 0.779c0.0022 0.481-0.507 0.456-0.482-0.0557l-0.018-0.687-0.0368 0.668c-0.0045 0.344-0.468 0.313-0.464-0.0927l0.0368-0.649-0.0743 0.612c-0.142-0.018-0.285-0.0375-0.427-0.26-0.0231-0.806 0.0705-1.18 0.167-1.54 0.0664-0.351 0.179-0.64 0.557-0.575z" fill="#f7ddbd"/>
<path class="shirt" d="m-2.21 4.71 0.0853 0.59c0.665-0.0465 1.29-0.0305 1.88-0.315l0.0135-0.505-0.584-0.486-1.15 0.367z" fill="#eeda22"/>
<path class="jacket" d="m-2.68-2.92c0.641-2.16 2.95-0.785 2.77 0.42-0.262 2.31-0.409 4.63-0.184 6.94-0.493 0.421-1.35 0.375-2.18 0.354-0.601-2.45-0.716-5.02-0.407-7.72z" fill="#8a508d"/>
</g>
<ellipse cx="2.74" cy="-9.24" rx=".294" ry=".52"/>
</g>
<path d="m3.1-10.2c-0.321-0.289-0.756-0.189-1 0.0835" fill="none" stroke="#000" stroke-linecap="round" stroke-linejoin="round" stroke-width=".224"/>
</g>
</svg>
